<mxfile host="Electron" modified="2024-04-11T16:29:04.461Z" agent="Mozilla/5.0 (Macintosh; Intel Mac OS X 10_15_7) AppleWebKit/537.36 (KHTML, like Gecko) draw.io/24.1.0 Chrome/120.0.6099.109 Electron/28.1.0 Safari/537.36" etag="cHGfBRdqdBlLOv2lxiUj" version="24.1.0" type="device" pages="6">
  <diagram id="FvCMQ2TYCZgG51o0GS3k" name="General">
    <mxGraphModel dx="1060" dy="1434" grid="1" gridSize="10" guides="1" tooltips="1" connect="1" arrows="1" fold="1" page="0" pageScale="1" pageWidth="827" pageHeight="1169" math="0" shadow="0">
      <root>
        <mxCell id="0" />
        <mxCell id="1" parent="0" />
        <mxCell id="tVjawHAVNyR94qLmI_um-8" style="edgeStyle=orthogonalEdgeStyle;rounded=0;orthogonalLoop=1;jettySize=auto;html=1;entryX=0;entryY=0.5;entryDx=0;entryDy=0;exitX=0;exitY=0.5;exitDx=0;exitDy=0;strokeColor=#bfbfbf;" parent="1" source="9Mva5xmkLYj3yJJdG0av-1" target="tVjawHAVNyR94qLmI_um-1" edge="1">
          <mxGeometry relative="1" as="geometry">
            <Array as="points">
              <mxPoint x="285" y="-75" />
              <mxPoint x="285" y="170" />
            </Array>
          </mxGeometry>
        </mxCell>
        <mxCell id="tVjawHAVNyR94qLmI_um-9" style="edgeStyle=orthogonalEdgeStyle;rounded=0;orthogonalLoop=1;jettySize=auto;html=1;exitX=0;exitY=0.5;exitDx=0;exitDy=0;entryX=0;entryY=0.5;entryDx=0;entryDy=0;strokeColor=#bfbfbf;" parent="1" source="9Mva5xmkLYj3yJJdG0av-1" target="9Mva5xmkLYj3yJJdG0av-2" edge="1">
          <mxGeometry relative="1" as="geometry">
            <Array as="points">
              <mxPoint x="300" y="-75" />
              <mxPoint x="300" y="60" />
            </Array>
          </mxGeometry>
        </mxCell>
        <mxCell id="tVjawHAVNyR94qLmI_um-10" value="&lt;font color=&quot;#bfbfbf&quot;&gt;Update settings&lt;/font&gt;" style="edgeLabel;html=1;align=center;verticalAlign=middle;resizable=0;points=[];" parent="tVjawHAVNyR94qLmI_um-9" vertex="1" connectable="0">
          <mxGeometry x="-0.552" y="-2" relative="1" as="geometry">
            <mxPoint x="8" y="-13" as="offset" />
          </mxGeometry>
        </mxCell>
        <mxCell id="9Mva5xmkLYj3yJJdG0av-1" value="&lt;font size=&quot;1&quot; color=&quot;#404040&quot; style=&quot;&quot;&gt;&lt;b style=&quot;font-size: 16px;&quot;&gt;DAO&lt;/b&gt;&lt;/font&gt;" style="rounded=1;whiteSpace=wrap;html=1;" parent="1" vertex="1">
          <mxGeometry x="380" y="-110" width="170" height="70" as="geometry" />
        </mxCell>
        <mxCell id="9Mva5xmkLYj3yJJdG0av-3" style="edgeStyle=orthogonalEdgeStyle;rounded=0;orthogonalLoop=1;jettySize=auto;html=1;entryX=0.5;entryY=1;entryDx=0;entryDy=0;" parent="1" source="9Mva5xmkLYj3yJJdG0av-2" target="9Mva5xmkLYj3yJJdG0av-1" edge="1">
          <mxGeometry relative="1" as="geometry" />
        </mxCell>
        <mxCell id="9Mva5xmkLYj3yJJdG0av-4" value="Execute" style="edgeLabel;html=1;align=center;verticalAlign=middle;resizable=0;points=[];" parent="9Mva5xmkLYj3yJJdG0av-3" vertex="1" connectable="0">
          <mxGeometry x="-0.0571" y="-1" relative="1" as="geometry">
            <mxPoint x="24" as="offset" />
          </mxGeometry>
        </mxCell>
        <mxCell id="9Mva5xmkLYj3yJJdG0av-2" value="&lt;font size=&quot;1&quot; color=&quot;#404040&quot; style=&quot;&quot;&gt;&lt;b style=&quot;font-size: 14px;&quot;&gt;Optimistic token voting plugin&lt;/b&gt;&lt;/font&gt;" style="rounded=1;whiteSpace=wrap;html=1;" parent="1" vertex="1">
          <mxGeometry x="390" y="30" width="150" height="60" as="geometry" />
        </mxCell>
        <mxCell id="tVjawHAVNyR94qLmI_um-3" style="edgeStyle=orthogonalEdgeStyle;rounded=0;orthogonalLoop=1;jettySize=auto;html=1;exitX=0.5;exitY=0;exitDx=0;exitDy=0;entryX=0.5;entryY=1;entryDx=0;entryDy=0;" parent="1" source="tVjawHAVNyR94qLmI_um-1" target="9Mva5xmkLYj3yJJdG0av-2" edge="1">
          <mxGeometry relative="1" as="geometry" />
        </mxCell>
        <mxCell id="tVjawHAVNyR94qLmI_um-1" value="&lt;font size=&quot;1&quot; color=&quot;#404040&quot; style=&quot;&quot;&gt;&lt;b style=&quot;font-size: 16px;&quot;&gt;Multisig&lt;/b&gt;&lt;/font&gt;&lt;div&gt;&lt;font color=&quot;#5c5c5c&quot; style=&quot;font-size: 12px;&quot;&gt;Standard&lt;/font&gt;&lt;/div&gt;" style="rounded=1;whiteSpace=wrap;html=1;" parent="1" vertex="1">
          <mxGeometry x="305" y="140" width="120" height="60" as="geometry" />
        </mxCell>
        <mxCell id="tVjawHAVNyR94qLmI_um-5" style="edgeStyle=orthogonalEdgeStyle;rounded=0;orthogonalLoop=1;jettySize=auto;html=1;exitX=0.5;exitY=0;exitDx=0;exitDy=0;" parent="1" source="tVjawHAVNyR94qLmI_um-2" edge="1">
          <mxGeometry relative="1" as="geometry">
            <mxPoint x="465" y="89.9230769230769" as="targetPoint" />
            <Array as="points">
              <mxPoint x="565" y="115" />
              <mxPoint x="465" y="115" />
            </Array>
          </mxGeometry>
        </mxCell>
        <mxCell id="tVjawHAVNyR94qLmI_um-7" value="Create proposal" style="edgeLabel;html=1;align=center;verticalAlign=middle;resizable=0;points=[];" parent="tVjawHAVNyR94qLmI_um-5" vertex="1" connectable="0">
          <mxGeometry x="0.4078" relative="1" as="geometry">
            <mxPoint x="-20" y="15" as="offset" />
          </mxGeometry>
        </mxCell>
        <mxCell id="tVjawHAVNyR94qLmI_um-2" value="&lt;font size=&quot;1&quot; color=&quot;#404040&quot; style=&quot;&quot;&gt;&lt;b style=&quot;font-size: 16px;&quot;&gt;Multisig&lt;/b&gt;&lt;/font&gt;&lt;div&gt;&lt;font color=&quot;#5c5c5c&quot; style=&quot;font-size: 12px;&quot;&gt;Emergency&lt;/font&gt;&lt;/div&gt;" style="rounded=1;whiteSpace=wrap;html=1;" parent="1" vertex="1">
          <mxGeometry x="505" y="140" width="120" height="60" as="geometry" />
        </mxCell>
        <mxCell id="tVjawHAVNyR94qLmI_um-12" style="edgeStyle=orthogonalEdgeStyle;rounded=0;orthogonalLoop=1;jettySize=auto;html=1;entryX=1;entryY=0.5;entryDx=0;entryDy=0;exitX=0.5;exitY=0;exitDx=0;exitDy=0;" parent="1" source="tVjawHAVNyR94qLmI_um-11" target="9Mva5xmkLYj3yJJdG0av-2" edge="1">
          <mxGeometry relative="1" as="geometry">
            <mxPoint x="735" y="110" as="targetPoint" />
            <Array as="points">
              <mxPoint x="720" y="60" />
            </Array>
          </mxGeometry>
        </mxCell>
        <mxCell id="tVjawHAVNyR94qLmI_um-13" value="Sync veto intents" style="edgeLabel;html=1;align=center;verticalAlign=middle;resizable=0;points=[];" parent="tVjawHAVNyR94qLmI_um-12" vertex="1" connectable="0">
          <mxGeometry x="-0.2024" relative="1" as="geometry">
            <mxPoint x="-32" y="10" as="offset" />
          </mxGeometry>
        </mxCell>
        <mxCell id="tVjawHAVNyR94qLmI_um-14" value="&lt;font size=&quot;1&quot; color=&quot;#404040&quot; style=&quot;&quot;&gt;&lt;b style=&quot;font-size: 14px;&quot;&gt;Delegate candidacy wall&lt;/b&gt;&lt;/font&gt;" style="rounded=1;whiteSpace=wrap;html=1;" parent="1" vertex="1">
          <mxGeometry x="375" y="340" width="130" height="50" as="geometry" />
        </mxCell>
        <mxCell id="tVjawHAVNyR94qLmI_um-15" style="edgeStyle=orthogonalEdgeStyle;rounded=0;orthogonalLoop=1;jettySize=auto;html=1;entryX=0.5;entryY=1;entryDx=0;entryDy=0;exitX=0;exitY=0.5;exitDx=0;exitDy=0;strokeColor=#bfbfbf;" parent="1" target="tVjawHAVNyR94qLmI_um-2" edge="1">
          <mxGeometry relative="1" as="geometry">
            <mxPoint x="380" y="-75" as="sourcePoint" />
            <mxPoint x="305" y="170" as="targetPoint" />
            <Array as="points">
              <mxPoint x="285" y="-75" />
              <mxPoint x="285" y="220" />
              <mxPoint x="565" y="220" />
            </Array>
          </mxGeometry>
        </mxCell>
        <mxCell id="xMdq7P4oA8g0cijs3zZL-6" style="edgeStyle=orthogonalEdgeStyle;rounded=0;orthogonalLoop=1;jettySize=auto;html=1;entryX=0.5;entryY=1;entryDx=0;entryDy=0;" edge="1" parent="1" source="DY-D84pm2P9aCGuJtl9o-1" target="tVjawHAVNyR94qLmI_um-11">
          <mxGeometry relative="1" as="geometry">
            <Array as="points">
              <mxPoint x="720" y="365" />
            </Array>
          </mxGeometry>
        </mxCell>
        <mxCell id="DY-D84pm2P9aCGuJtl9o-1" value="&lt;font size=&quot;1&quot; color=&quot;#404040&quot; style=&quot;&quot;&gt;&lt;b style=&quot;font-size: 14px;&quot;&gt;Veto intent aggregator&lt;/b&gt;&lt;/font&gt;" style="rounded=1;whiteSpace=wrap;html=1;" vertex="1" parent="1">
          <mxGeometry x="560" y="340" width="130" height="50" as="geometry" />
        </mxCell>
        <mxCell id="xMdq7P4oA8g0cijs3zZL-1" value="" style="endArrow=none;dashed=1;html=1;dashPattern=1 3;strokeWidth=2;rounded=0;" edge="1" parent="1">
          <mxGeometry width="50" height="50" relative="1" as="geometry">
            <mxPoint x="170" y="270" as="sourcePoint" />
            <mxPoint x="880" y="270" as="targetPoint" />
          </mxGeometry>
        </mxCell>
        <mxCell id="xMdq7P4oA8g0cijs3zZL-2" value="L1" style="rounded=0;whiteSpace=wrap;html=1;" vertex="1" parent="1">
          <mxGeometry x="170" y="230" width="80" height="30" as="geometry" />
        </mxCell>
        <mxCell id="xMdq7P4oA8g0cijs3zZL-3" value="L2" style="rounded=0;whiteSpace=wrap;html=1;" vertex="1" parent="1">
          <mxGeometry x="170" y="280" width="80" height="30" as="geometry" />
        </mxCell>
        <mxCell id="xMdq7P4oA8g0cijs3zZL-4" value="L1" style="rounded=0;whiteSpace=wrap;html=1;" vertex="1" parent="1">
          <mxGeometry x="800" y="230" width="80" height="30" as="geometry" />
        </mxCell>
        <mxCell id="xMdq7P4oA8g0cijs3zZL-5" value="L2" style="rounded=0;whiteSpace=wrap;html=1;" vertex="1" parent="1">
          <mxGeometry x="800" y="280" width="80" height="30" as="geometry" />
        </mxCell>
        <mxCell id="tVjawHAVNyR94qLmI_um-11" value="&lt;font size=&quot;1&quot; color=&quot;#404040&quot; style=&quot;&quot;&gt;&lt;b style=&quot;font-size: 14px;&quot;&gt;Taiko bridge&lt;/b&gt;&lt;/font&gt;" style="rounded=1;whiteSpace=wrap;html=1;" parent="1" vertex="1">
          <mxGeometry x="660" y="240" width="120" height="60" as="geometry" />
        </mxCell>
        <mxCell id="OcpWWv0IAxbIL7iRxVsK-1" style="edgeStyle=orthogonalEdgeStyle;rounded=0;orthogonalLoop=1;jettySize=auto;html=1;entryX=0;entryY=0.5;entryDx=0;entryDy=0;exitX=0;exitY=0.5;exitDx=0;exitDy=0;strokeColor=#bfbfbf;" edge="1" source="OcpWWv0IAxbIL7iRxVsK-4" target="OcpWWv0IAxbIL7iRxVsK-9" parent="1">
          <mxGeometry relative="1" as="geometry">
            <Array as="points">
              <mxPoint x="285" y="745" />
              <mxPoint x="285" y="990" />
            </Array>
          </mxGeometry>
        </mxCell>
        <mxCell id="OcpWWv0IAxbIL7iRxVsK-2" style="edgeStyle=orthogonalEdgeStyle;rounded=0;orthogonalLoop=1;jettySize=auto;html=1;exitX=0;exitY=0.5;exitDx=0;exitDy=0;entryX=0;entryY=0.5;entryDx=0;entryDy=0;strokeColor=#bfbfbf;" edge="1" source="OcpWWv0IAxbIL7iRxVsK-4" target="OcpWWv0IAxbIL7iRxVsK-7" parent="1">
          <mxGeometry relative="1" as="geometry">
            <Array as="points">
              <mxPoint x="300" y="745" />
              <mxPoint x="300" y="880" />
            </Array>
          </mxGeometry>
        </mxCell>
        <mxCell id="OcpWWv0IAxbIL7iRxVsK-3" value="&lt;font color=&quot;#bfbfbf&quot;&gt;Update settings&lt;/font&gt;" style="edgeLabel;html=1;align=center;verticalAlign=middle;resizable=0;points=[];" vertex="1" connectable="0" parent="OcpWWv0IAxbIL7iRxVsK-2">
          <mxGeometry x="-0.552" y="-2" relative="1" as="geometry">
            <mxPoint x="8" y="-13" as="offset" />
          </mxGeometry>
        </mxCell>
        <mxCell id="OcpWWv0IAxbIL7iRxVsK-4" value="&lt;font size=&quot;1&quot; color=&quot;#404040&quot; style=&quot;&quot;&gt;&lt;b style=&quot;font-size: 16px;&quot;&gt;DAO&lt;/b&gt;&lt;/font&gt;" style="rounded=1;whiteSpace=wrap;html=1;" vertex="1" parent="1">
          <mxGeometry x="380" y="710" width="170" height="70" as="geometry" />
        </mxCell>
        <mxCell id="OcpWWv0IAxbIL7iRxVsK-5" style="edgeStyle=orthogonalEdgeStyle;rounded=0;orthogonalLoop=1;jettySize=auto;html=1;entryX=0.5;entryY=1;entryDx=0;entryDy=0;" edge="1" source="OcpWWv0IAxbIL7iRxVsK-7" target="OcpWWv0IAxbIL7iRxVsK-4" parent="1">
          <mxGeometry relative="1" as="geometry" />
        </mxCell>
        <mxCell id="OcpWWv0IAxbIL7iRxVsK-6" value="Execute" style="edgeLabel;html=1;align=center;verticalAlign=middle;resizable=0;points=[];" vertex="1" connectable="0" parent="OcpWWv0IAxbIL7iRxVsK-5">
          <mxGeometry x="-0.0571" y="-1" relative="1" as="geometry">
            <mxPoint x="24" as="offset" />
          </mxGeometry>
        </mxCell>
        <mxCell id="OcpWWv0IAxbIL7iRxVsK-7" value="&lt;font size=&quot;1&quot; color=&quot;#404040&quot; style=&quot;&quot;&gt;&lt;b style=&quot;font-size: 14px;&quot;&gt;Optimistic token voting plugin&lt;/b&gt;&lt;/font&gt;" style="rounded=1;whiteSpace=wrap;html=1;" vertex="1" parent="1">
          <mxGeometry x="390" y="850" width="150" height="60" as="geometry" />
        </mxCell>
        <mxCell id="OcpWWv0IAxbIL7iRxVsK-8" style="edgeStyle=orthogonalEdgeStyle;rounded=0;orthogonalLoop=1;jettySize=auto;html=1;exitX=0.5;exitY=0;exitDx=0;exitDy=0;entryX=0.5;entryY=1;entryDx=0;entryDy=0;" edge="1" source="OcpWWv0IAxbIL7iRxVsK-9" target="OcpWWv0IAxbIL7iRxVsK-7" parent="1">
          <mxGeometry relative="1" as="geometry" />
        </mxCell>
        <mxCell id="OcpWWv0IAxbIL7iRxVsK-9" value="&lt;font size=&quot;1&quot; color=&quot;#404040&quot; style=&quot;&quot;&gt;&lt;b style=&quot;font-size: 16px;&quot;&gt;Multisig&lt;/b&gt;&lt;/font&gt;&lt;div&gt;&lt;font color=&quot;#5c5c5c&quot; style=&quot;font-size: 12px;&quot;&gt;Standard&lt;/font&gt;&lt;/div&gt;" style="rounded=1;whiteSpace=wrap;html=1;" vertex="1" parent="1">
          <mxGeometry x="305" y="960" width="120" height="60" as="geometry" />
        </mxCell>
        <mxCell id="OcpWWv0IAxbIL7iRxVsK-10" style="edgeStyle=orthogonalEdgeStyle;rounded=0;orthogonalLoop=1;jettySize=auto;html=1;exitX=0.5;exitY=0;exitDx=0;exitDy=0;" edge="1" source="OcpWWv0IAxbIL7iRxVsK-12" parent="1">
          <mxGeometry relative="1" as="geometry">
            <mxPoint x="465" y="909.9230769230769" as="targetPoint" />
            <Array as="points">
              <mxPoint x="565" y="935" />
              <mxPoint x="465" y="935" />
            </Array>
          </mxGeometry>
        </mxCell>
        <mxCell id="OcpWWv0IAxbIL7iRxVsK-11" value="Create proposal" style="edgeLabel;html=1;align=center;verticalAlign=middle;resizable=0;points=[];" vertex="1" connectable="0" parent="OcpWWv0IAxbIL7iRxVsK-10">
          <mxGeometry x="0.4078" relative="1" as="geometry">
            <mxPoint x="-20" y="15" as="offset" />
          </mxGeometry>
        </mxCell>
        <mxCell id="OcpWWv0IAxbIL7iRxVsK-12" value="&lt;font size=&quot;1&quot; color=&quot;#404040&quot; style=&quot;&quot;&gt;&lt;b style=&quot;font-size: 16px;&quot;&gt;Multisig&lt;/b&gt;&lt;/font&gt;&lt;div&gt;&lt;font color=&quot;#5c5c5c&quot; style=&quot;font-size: 12px;&quot;&gt;Emergency&lt;/font&gt;&lt;/div&gt;" style="rounded=1;whiteSpace=wrap;html=1;" vertex="1" parent="1">
          <mxGeometry x="505" y="960" width="120" height="60" as="geometry" />
        </mxCell>
        <mxCell id="OcpWWv0IAxbIL7iRxVsK-16" style="edgeStyle=orthogonalEdgeStyle;rounded=0;orthogonalLoop=1;jettySize=auto;html=1;entryX=0.5;entryY=1;entryDx=0;entryDy=0;exitX=0;exitY=0.5;exitDx=0;exitDy=0;strokeColor=#bfbfbf;" edge="1" target="OcpWWv0IAxbIL7iRxVsK-12" parent="1">
          <mxGeometry relative="1" as="geometry">
            <mxPoint x="380" y="745" as="sourcePoint" />
            <mxPoint x="305" y="990" as="targetPoint" />
            <Array as="points">
              <mxPoint x="285" y="745" />
              <mxPoint x="285" y="1040" />
              <mxPoint x="565" y="1040" />
            </Array>
          </mxGeometry>
        </mxCell>
        <mxCell id="OcpWWv0IAxbIL7iRxVsK-25" value="&lt;font size=&quot;1&quot; color=&quot;#404040&quot; style=&quot;&quot;&gt;&lt;b style=&quot;font-size: 14px;&quot;&gt;Delegate candidacy wall&lt;/b&gt;&lt;/font&gt;" style="rounded=1;whiteSpace=wrap;html=1;" vertex="1" parent="1">
          <mxGeometry x="670" y="855" width="130" height="50" as="geometry" />
        </mxCell>
        <mxCell id="OcpWWv0IAxbIL7iRxVsK-26" value="L1+L2" style="text;html=1;align=center;verticalAlign=middle;resizable=0;points=[];autosize=1;strokeColor=none;fillColor=none;" vertex="1" parent="1">
          <mxGeometry x="50" y="-252" width="60" height="30" as="geometry" />
        </mxCell>
        <mxCell id="OcpWWv0IAxbIL7iRxVsK-27" value="L1 only" style="text;html=1;align=center;verticalAlign=middle;resizable=0;points=[];autosize=1;strokeColor=none;fillColor=none;" vertex="1" parent="1">
          <mxGeometry x="50" y="650" width="60" height="30" as="geometry" />
        </mxCell>
      </root>
    </mxGraphModel>
  </diagram>
  <diagram name="Standard proposal flow" id="-0tcjrmhDcIy10hRTlAE">
    <mxGraphModel dx="1578" dy="1549" grid="1" gridSize="10" guides="1" tooltips="1" connect="1" arrows="1" fold="1" page="0" pageScale="1" pageWidth="827" pageHeight="1169" math="0" shadow="0">
      <root>
        <mxCell id="0" />
        <mxCell id="1" parent="0" />
        <mxCell id="yonIIfe3boUSWm_N8UCJ-9" style="edgeStyle=orthogonalEdgeStyle;rounded=0;orthogonalLoop=1;jettySize=auto;html=1;entryX=0;entryY=0.5;entryDx=0;entryDy=0;" parent="1" source="yonIIfe3boUSWm_N8UCJ-1" target="yonIIfe3boUSWm_N8UCJ-7" edge="1">
          <mxGeometry relative="1" as="geometry" />
        </mxCell>
        <mxCell id="yonIIfe3boUSWm_N8UCJ-11" value="Create proposal" style="edgeLabel;html=1;align=center;verticalAlign=middle;resizable=0;points=[];" parent="yonIIfe3boUSWm_N8UCJ-9" vertex="1" connectable="0">
          <mxGeometry x="-0.0211" y="3" relative="1" as="geometry">
            <mxPoint y="-7" as="offset" />
          </mxGeometry>
        </mxCell>
        <mxCell id="yonIIfe3boUSWm_N8UCJ-1" value="Security Council&lt;div&gt;member&lt;/div&gt;" style="shape=umlActor;verticalLabelPosition=bottom;verticalAlign=top;html=1;outlineConnect=0;" parent="1" vertex="1">
          <mxGeometry x="80" y="90" width="30" height="60" as="geometry" />
        </mxCell>
        <mxCell id="yonIIfe3boUSWm_N8UCJ-19" style="edgeStyle=orthogonalEdgeStyle;rounded=0;orthogonalLoop=1;jettySize=auto;html=1;exitX=1;exitY=0.5;exitDx=0;exitDy=0;entryX=0;entryY=0.5;entryDx=0;entryDy=0;" parent="1" source="yonIIfe3boUSWm_N8UCJ-7" target="yonIIfe3boUSWm_N8UCJ-18" edge="1">
          <mxGeometry relative="1" as="geometry" />
        </mxCell>
        <mxCell id="yonIIfe3boUSWm_N8UCJ-7" value="&lt;font size=&quot;1&quot; color=&quot;#404040&quot; style=&quot;&quot;&gt;&lt;b style=&quot;font-size: 16px;&quot;&gt;Multisig&lt;/b&gt;&lt;/font&gt;&lt;div&gt;&lt;font color=&quot;#5c5c5c&quot; style=&quot;font-size: 12px;&quot;&gt;Standard&lt;/font&gt;&lt;/div&gt;" style="rounded=1;whiteSpace=wrap;html=1;" parent="1" vertex="1">
          <mxGeometry x="230" y="90" width="120" height="60" as="geometry" />
        </mxCell>
        <mxCell id="yonIIfe3boUSWm_N8UCJ-16" style="edgeStyle=orthogonalEdgeStyle;rounded=0;orthogonalLoop=1;jettySize=auto;html=1;entryX=0.5;entryY=1;entryDx=0;entryDy=0;" parent="1" source="yonIIfe3boUSWm_N8UCJ-12" target="yonIIfe3boUSWm_N8UCJ-7" edge="1">
          <mxGeometry relative="1" as="geometry" />
        </mxCell>
        <mxCell id="yonIIfe3boUSWm_N8UCJ-17" value="Approve" style="edgeLabel;html=1;align=center;verticalAlign=middle;resizable=0;points=[];" parent="yonIIfe3boUSWm_N8UCJ-16" vertex="1" connectable="0">
          <mxGeometry x="-0.3091" y="4" relative="1" as="geometry">
            <mxPoint y="-6" as="offset" />
          </mxGeometry>
        </mxCell>
        <mxCell id="yonIIfe3boUSWm_N8UCJ-12" value="Security Council&lt;div&gt;member (M of N)&lt;/div&gt;" style="shape=umlActor;verticalLabelPosition=bottom;verticalAlign=top;html=1;outlineConnect=0;" parent="1" vertex="1">
          <mxGeometry x="80" y="200" width="30" height="60" as="geometry" />
        </mxCell>
        <mxCell id="yonIIfe3boUSWm_N8UCJ-21" style="edgeStyle=orthogonalEdgeStyle;rounded=0;orthogonalLoop=1;jettySize=auto;html=1;exitX=0.5;exitY=0;exitDx=0;exitDy=0;entryX=0.5;entryY=1;entryDx=0;entryDy=0;" parent="1" source="yonIIfe3boUSWm_N8UCJ-18" target="yonIIfe3boUSWm_N8UCJ-20" edge="1">
          <mxGeometry relative="1" as="geometry" />
        </mxCell>
        <mxCell id="yonIIfe3boUSWm_N8UCJ-22" value="No" style="edgeLabel;html=1;align=center;verticalAlign=middle;resizable=0;points=[];" parent="yonIIfe3boUSWm_N8UCJ-21" vertex="1" connectable="0">
          <mxGeometry x="0.02" y="-3" relative="1" as="geometry">
            <mxPoint x="17" y="1" as="offset" />
          </mxGeometry>
        </mxCell>
        <mxCell id="yonIIfe3boUSWm_N8UCJ-24" style="edgeStyle=orthogonalEdgeStyle;rounded=0;orthogonalLoop=1;jettySize=auto;html=1;exitX=1;exitY=0.5;exitDx=0;exitDy=0;entryX=0;entryY=0.5;entryDx=0;entryDy=0;" parent="1" source="yonIIfe3boUSWm_N8UCJ-18" target="yonIIfe3boUSWm_N8UCJ-23" edge="1">
          <mxGeometry relative="1" as="geometry" />
        </mxCell>
        <mxCell id="yonIIfe3boUSWm_N8UCJ-25" value="Create proposal" style="edgeLabel;html=1;align=center;verticalAlign=middle;resizable=0;points=[];" parent="yonIIfe3boUSWm_N8UCJ-24" vertex="1" connectable="0">
          <mxGeometry x="-0.2909" relative="1" as="geometry">
            <mxPoint x="11" y="-10" as="offset" />
          </mxGeometry>
        </mxCell>
        <mxCell id="yonIIfe3boUSWm_N8UCJ-18" value="Approved?" style="rhombus;whiteSpace=wrap;html=1;" parent="1" vertex="1">
          <mxGeometry x="390" y="80" width="80" height="80" as="geometry" />
        </mxCell>
        <mxCell id="yonIIfe3boUSWm_N8UCJ-20" value="Rejected" style="rounded=1;whiteSpace=wrap;html=1;" parent="1" vertex="1">
          <mxGeometry x="385" width="90" height="30" as="geometry" />
        </mxCell>
        <mxCell id="Sps8LiRHfBSsz9i6ztpr-17" style="edgeStyle=orthogonalEdgeStyle;rounded=0;orthogonalLoop=1;jettySize=auto;html=1;exitX=1;exitY=0.5;exitDx=0;exitDy=0;entryX=0;entryY=0.5;entryDx=0;entryDy=0;" parent="1" source="yonIIfe3boUSWm_N8UCJ-23" target="Sps8LiRHfBSsz9i6ztpr-16" edge="1">
          <mxGeometry relative="1" as="geometry" />
        </mxCell>
        <mxCell id="sILVLMwYd7NjAboaMsMr-4" style="edgeStyle=orthogonalEdgeStyle;rounded=0;orthogonalLoop=1;jettySize=auto;html=1;exitX=0.25;exitY=1;exitDx=0;exitDy=0;entryX=0.25;entryY=0;entryDx=0;entryDy=0;" edge="1" parent="1" source="yonIIfe3boUSWm_N8UCJ-23" target="Sps8LiRHfBSsz9i6ztpr-7">
          <mxGeometry relative="1" as="geometry" />
        </mxCell>
        <mxCell id="sILVLMwYd7NjAboaMsMr-5" value="Notify proposal" style="edgeLabel;html=1;align=center;verticalAlign=middle;resizable=0;points=[];" vertex="1" connectable="0" parent="sILVLMwYd7NjAboaMsMr-4">
          <mxGeometry x="-0.275" y="3" relative="1" as="geometry">
            <mxPoint y="-6" as="offset" />
          </mxGeometry>
        </mxCell>
        <mxCell id="yonIIfe3boUSWm_N8UCJ-23" value="&lt;font size=&quot;1&quot; color=&quot;#404040&quot; style=&quot;&quot;&gt;&lt;b style=&quot;font-size: 16px;&quot;&gt;Optimistic vote&lt;br&gt;&lt;/b&gt;&lt;/font&gt;&lt;span style=&quot;color: rgb(92, 92, 92);&quot;&gt;Standard delay&lt;/span&gt;&lt;font size=&quot;1&quot; color=&quot;#404040&quot; style=&quot;&quot;&gt;&lt;b style=&quot;font-size: 16px;&quot;&gt;&lt;br&gt;&lt;/b&gt;&lt;/font&gt;" style="rounded=1;whiteSpace=wrap;html=1;" parent="1" vertex="1">
          <mxGeometry x="580" y="90" width="170" height="60" as="geometry" />
        </mxCell>
        <mxCell id="yonIIfe3boUSWm_N8UCJ-26" value="" style="endArrow=none;dashed=1;html=1;dashPattern=1 3;strokeWidth=2;rounded=0;" parent="1" edge="1">
          <mxGeometry width="50" height="50" relative="1" as="geometry">
            <mxPoint x="-40" y="360" as="sourcePoint" />
            <mxPoint x="1040" y="360" as="targetPoint" />
          </mxGeometry>
        </mxCell>
        <mxCell id="yonIIfe3boUSWm_N8UCJ-28" value="L1" style="rounded=0;whiteSpace=wrap;html=1;" parent="1" vertex="1">
          <mxGeometry x="-40" y="320" width="80" height="30" as="geometry" />
        </mxCell>
        <mxCell id="yonIIfe3boUSWm_N8UCJ-29" value="L2" style="rounded=0;whiteSpace=wrap;html=1;" parent="1" vertex="1">
          <mxGeometry x="-40" y="370" width="80" height="30" as="geometry" />
        </mxCell>
        <mxCell id="sILVLMwYd7NjAboaMsMr-2" style="edgeStyle=orthogonalEdgeStyle;rounded=0;orthogonalLoop=1;jettySize=auto;html=1;entryX=0.5;entryY=0;entryDx=0;entryDy=0;" edge="1" parent="1" source="Sps8LiRHfBSsz9i6ztpr-1" target="yonIIfe3boUSWm_N8UCJ-23">
          <mxGeometry relative="1" as="geometry">
            <Array as="points">
              <mxPoint x="665" y="20" />
            </Array>
          </mxGeometry>
        </mxCell>
        <mxCell id="sILVLMwYd7NjAboaMsMr-3" value="Veto" style="edgeLabel;html=1;align=center;verticalAlign=middle;resizable=0;points=[];" vertex="1" connectable="0" parent="sILVLMwYd7NjAboaMsMr-2">
          <mxGeometry x="-0.1487" y="1" relative="1" as="geometry">
            <mxPoint y="12" as="offset" />
          </mxGeometry>
        </mxCell>
        <mxCell id="Sps8LiRHfBSsz9i6ztpr-1" value="Delegate" style="shape=umlActor;verticalLabelPosition=bottom;verticalAlign=top;html=1;outlineConnect=0;" parent="1" vertex="1">
          <mxGeometry x="550" y="-20" width="30" height="60" as="geometry" />
        </mxCell>
        <mxCell id="Sps8LiRHfBSsz9i6ztpr-14" style="edgeStyle=orthogonalEdgeStyle;rounded=0;orthogonalLoop=1;jettySize=auto;html=1;exitX=0.75;exitY=0;exitDx=0;exitDy=0;entryX=0.75;entryY=1;entryDx=0;entryDy=0;" parent="1" edge="1">
          <mxGeometry relative="1" as="geometry">
            <mxPoint x="713.5" y="470" as="sourcePoint" />
            <mxPoint x="713.5" y="150" as="targetPoint" />
          </mxGeometry>
        </mxCell>
        <mxCell id="Sps8LiRHfBSsz9i6ztpr-15" value="Relay veto batch" style="edgeLabel;html=1;align=center;verticalAlign=middle;resizable=0;points=[];" parent="Sps8LiRHfBSsz9i6ztpr-14" vertex="1" connectable="0">
          <mxGeometry x="0.4469" y="3" relative="1" as="geometry">
            <mxPoint x="1" y="22" as="offset" />
          </mxGeometry>
        </mxCell>
        <mxCell id="wD2OG6ifZxEcAoqdkh_1-47" style="edgeStyle=orthogonalEdgeStyle;rounded=0;orthogonalLoop=1;jettySize=auto;html=1;exitX=0.5;exitY=0;exitDx=0;exitDy=0;entryX=0.5;entryY=1;entryDx=0;entryDy=0;" edge="1" source="wD2OG6ifZxEcAoqdkh_1-50" target="wD2OG6ifZxEcAoqdkh_1-51" parent="Sps8LiRHfBSsz9i6ztpr-14">
          <mxGeometry relative="1" as="geometry" />
        </mxCell>
        <mxCell id="wD2OG6ifZxEcAoqdkh_1-48" value="Yes" style="edgeLabel;html=1;align=center;verticalAlign=middle;resizable=0;points=[];" vertex="1" connectable="0" parent="wD2OG6ifZxEcAoqdkh_1-47">
          <mxGeometry x="-0.075" y="2" relative="1" as="geometry">
            <mxPoint x="22" y="1" as="offset" />
          </mxGeometry>
        </mxCell>
        <mxCell id="Sps8LiRHfBSsz9i6ztpr-22" style="edgeStyle=orthogonalEdgeStyle;rounded=0;orthogonalLoop=1;jettySize=auto;html=1;entryX=0;entryY=0.5;entryDx=0;entryDy=0;" parent="1" source="Sps8LiRHfBSsz9i6ztpr-7" target="Sps8LiRHfBSsz9i6ztpr-21" edge="1">
          <mxGeometry relative="1" as="geometry" />
        </mxCell>
        <mxCell id="Sps8LiRHfBSsz9i6ztpr-23" value="Verify" style="edgeLabel;html=1;align=center;verticalAlign=middle;resizable=0;points=[];" parent="Sps8LiRHfBSsz9i6ztpr-22" vertex="1" connectable="0">
          <mxGeometry x="-0.1" y="1" relative="1" as="geometry">
            <mxPoint x="5" y="-14" as="offset" />
          </mxGeometry>
        </mxCell>
        <mxCell id="Sps8LiRHfBSsz9i6ztpr-7" value="&lt;font size=&quot;1&quot; color=&quot;#404040&quot; style=&quot;&quot;&gt;&lt;b style=&quot;font-size: 16px;&quot;&gt;Veto aggregator&lt;/b&gt;&lt;/font&gt;" style="rounded=1;whiteSpace=wrap;html=1;" parent="1" vertex="1">
          <mxGeometry x="580" y="470" width="170" height="70" as="geometry" />
        </mxCell>
        <mxCell id="Sps8LiRHfBSsz9i6ztpr-11" style="edgeStyle=orthogonalEdgeStyle;rounded=0;orthogonalLoop=1;jettySize=auto;html=1;" parent="1" source="Sps8LiRHfBSsz9i6ztpr-9" target="Sps8LiRHfBSsz9i6ztpr-7" edge="1">
          <mxGeometry relative="1" as="geometry">
            <Array as="points">
              <mxPoint x="450" y="460" />
              <mxPoint x="450" y="505" />
            </Array>
          </mxGeometry>
        </mxCell>
        <mxCell id="Sps8LiRHfBSsz9i6ztpr-9" value="Delegate" style="shape=umlActor;verticalLabelPosition=bottom;verticalAlign=top;html=1;outlineConnect=0;" parent="1" vertex="1">
          <mxGeometry x="370" y="430" width="30" height="60" as="geometry" />
        </mxCell>
        <mxCell id="Sps8LiRHfBSsz9i6ztpr-12" style="edgeStyle=orthogonalEdgeStyle;rounded=0;orthogonalLoop=1;jettySize=auto;html=1;entryX=0;entryY=0.5;entryDx=0;entryDy=0;" parent="1" source="Sps8LiRHfBSsz9i6ztpr-10" target="Sps8LiRHfBSsz9i6ztpr-7" edge="1">
          <mxGeometry relative="1" as="geometry">
            <Array as="points">
              <mxPoint x="450" y="550" />
              <mxPoint x="450" y="505" />
            </Array>
          </mxGeometry>
        </mxCell>
        <mxCell id="Sps8LiRHfBSsz9i6ztpr-13" value="Veto intent" style="edgeLabel;html=1;align=center;verticalAlign=middle;resizable=0;points=[];" parent="Sps8LiRHfBSsz9i6ztpr-12" vertex="1" connectable="0">
          <mxGeometry x="0.5733" relative="1" as="geometry">
            <mxPoint x="-22" y="-15" as="offset" />
          </mxGeometry>
        </mxCell>
        <mxCell id="Sps8LiRHfBSsz9i6ztpr-10" value="Token holder" style="shape=umlActor;verticalLabelPosition=bottom;verticalAlign=top;html=1;outlineConnect=0;" parent="1" vertex="1">
          <mxGeometry x="370" y="520" width="30" height="60" as="geometry" />
        </mxCell>
        <mxCell id="Sps8LiRHfBSsz9i6ztpr-6" value="&lt;font size=&quot;1&quot; style=&quot;&quot;&gt;&lt;b style=&quot;font-size: 16px;&quot;&gt;Taiko Bridge&lt;/b&gt;&lt;/font&gt;" style="rounded=1;whiteSpace=wrap;html=1;dashed=1;perimeterSpacing=0;strokeColor=#4a4a4a;" parent="1" vertex="1">
          <mxGeometry x="520" y="305" width="280" height="115" as="geometry" />
        </mxCell>
        <mxCell id="Sps8LiRHfBSsz9i6ztpr-19" style="edgeStyle=orthogonalEdgeStyle;rounded=0;orthogonalLoop=1;jettySize=auto;html=1;exitX=0.5;exitY=0;exitDx=0;exitDy=0;entryX=0.5;entryY=1;entryDx=0;entryDy=0;" parent="1" source="Sps8LiRHfBSsz9i6ztpr-16" target="Sps8LiRHfBSsz9i6ztpr-18" edge="1">
          <mxGeometry relative="1" as="geometry" />
        </mxCell>
        <mxCell id="Sps8LiRHfBSsz9i6ztpr-20" value="Yes" style="edgeLabel;html=1;align=center;verticalAlign=middle;resizable=0;points=[];" parent="Sps8LiRHfBSsz9i6ztpr-19" vertex="1" connectable="0">
          <mxGeometry x="-0.075" y="2" relative="1" as="geometry">
            <mxPoint x="22" y="1" as="offset" />
          </mxGeometry>
        </mxCell>
        <mxCell id="Sps8LiRHfBSsz9i6ztpr-26" value="No" style="edgeStyle=orthogonalEdgeStyle;rounded=0;orthogonalLoop=1;jettySize=auto;html=1;exitX=1;exitY=0.5;exitDx=0;exitDy=0;entryX=0;entryY=0.5;entryDx=0;entryDy=0;" parent="1" source="Sps8LiRHfBSsz9i6ztpr-16" target="Sps8LiRHfBSsz9i6ztpr-25" edge="1">
          <mxGeometry x="-0.2" y="-10" relative="1" as="geometry">
            <mxPoint as="offset" />
          </mxGeometry>
        </mxCell>
        <mxCell id="Sps8LiRHfBSsz9i6ztpr-16" value="Vetoed&lt;div&gt;after&amp;nbsp;&lt;/div&gt;&lt;div&gt;delay?&lt;/div&gt;" style="rhombus;whiteSpace=wrap;html=1;" parent="1" vertex="1">
          <mxGeometry x="800" y="70" width="100" height="100" as="geometry" />
        </mxCell>
        <mxCell id="Sps8LiRHfBSsz9i6ztpr-18" value="Rejected" style="rounded=1;whiteSpace=wrap;html=1;" parent="1" vertex="1">
          <mxGeometry x="805" width="90" height="30" as="geometry" />
        </mxCell>
        <mxCell id="Sps8LiRHfBSsz9i6ztpr-21" value="&lt;font size=&quot;1&quot; color=&quot;#404040&quot; style=&quot;&quot;&gt;&lt;b style=&quot;font-size: 16px;&quot;&gt;L1 hashes&lt;/b&gt;&lt;/font&gt;" style="rounded=1;whiteSpace=wrap;html=1;" parent="1" vertex="1">
          <mxGeometry x="865" y="470" width="170" height="70" as="geometry" />
        </mxCell>
        <mxCell id="Sps8LiRHfBSsz9i6ztpr-25" value="Executable" style="rounded=1;whiteSpace=wrap;html=1;" parent="1" vertex="1">
          <mxGeometry x="950" y="105" width="90" height="30" as="geometry" />
        </mxCell>
        <mxCell id="Sps8LiRHfBSsz9i6ztpr-27" value="L1" style="rounded=0;whiteSpace=wrap;html=1;" parent="1" vertex="1">
          <mxGeometry x="955" y="320" width="80" height="30" as="geometry" />
        </mxCell>
        <mxCell id="Sps8LiRHfBSsz9i6ztpr-28" value="L2" style="rounded=0;whiteSpace=wrap;html=1;" parent="1" vertex="1">
          <mxGeometry x="955" y="370" width="80" height="30" as="geometry" />
        </mxCell>
        <mxCell id="wD2OG6ifZxEcAoqdkh_1-27" style="edgeStyle=orthogonalEdgeStyle;rounded=0;orthogonalLoop=1;jettySize=auto;html=1;entryX=0;entryY=0.5;entryDx=0;entryDy=0;" edge="1" source="wD2OG6ifZxEcAoqdkh_1-29" target="wD2OG6ifZxEcAoqdkh_1-31" parent="1">
          <mxGeometry relative="1" as="geometry" />
        </mxCell>
        <mxCell id="wD2OG6ifZxEcAoqdkh_1-28" value="Create proposal" style="edgeLabel;html=1;align=center;verticalAlign=middle;resizable=0;points=[];" vertex="1" connectable="0" parent="wD2OG6ifZxEcAoqdkh_1-27">
          <mxGeometry x="-0.0211" y="3" relative="1" as="geometry">
            <mxPoint y="-7" as="offset" />
          </mxGeometry>
        </mxCell>
        <mxCell id="wD2OG6ifZxEcAoqdkh_1-29" value="Security Council&lt;div&gt;member&lt;/div&gt;" style="shape=umlActor;verticalLabelPosition=bottom;verticalAlign=top;html=1;outlineConnect=0;" vertex="1" parent="1">
          <mxGeometry x="49" y="980" width="30" height="60" as="geometry" />
        </mxCell>
        <mxCell id="wD2OG6ifZxEcAoqdkh_1-30" style="edgeStyle=orthogonalEdgeStyle;rounded=0;orthogonalLoop=1;jettySize=auto;html=1;exitX=1;exitY=0.5;exitDx=0;exitDy=0;entryX=0;entryY=0.5;entryDx=0;entryDy=0;" edge="1" source="wD2OG6ifZxEcAoqdkh_1-31" target="wD2OG6ifZxEcAoqdkh_1-39" parent="1">
          <mxGeometry relative="1" as="geometry" />
        </mxCell>
        <mxCell id="wD2OG6ifZxEcAoqdkh_1-31" value="&lt;font size=&quot;1&quot; color=&quot;#404040&quot; style=&quot;&quot;&gt;&lt;b style=&quot;font-size: 16px;&quot;&gt;Multisig&lt;/b&gt;&lt;/font&gt;&lt;div&gt;&lt;font color=&quot;#5c5c5c&quot; style=&quot;font-size: 12px;&quot;&gt;Standard&lt;/font&gt;&lt;/div&gt;" style="rounded=1;whiteSpace=wrap;html=1;" vertex="1" parent="1">
          <mxGeometry x="199" y="980" width="120" height="60" as="geometry" />
        </mxCell>
        <mxCell id="wD2OG6ifZxEcAoqdkh_1-32" style="edgeStyle=orthogonalEdgeStyle;rounded=0;orthogonalLoop=1;jettySize=auto;html=1;entryX=0.5;entryY=1;entryDx=0;entryDy=0;" edge="1" source="wD2OG6ifZxEcAoqdkh_1-34" target="wD2OG6ifZxEcAoqdkh_1-31" parent="1">
          <mxGeometry relative="1" as="geometry" />
        </mxCell>
        <mxCell id="wD2OG6ifZxEcAoqdkh_1-33" value="Approve" style="edgeLabel;html=1;align=center;verticalAlign=middle;resizable=0;points=[];" vertex="1" connectable="0" parent="wD2OG6ifZxEcAoqdkh_1-32">
          <mxGeometry x="-0.3091" y="4" relative="1" as="geometry">
            <mxPoint y="-6" as="offset" />
          </mxGeometry>
        </mxCell>
        <mxCell id="wD2OG6ifZxEcAoqdkh_1-34" value="Security Council&lt;div&gt;member (M of N)&lt;/div&gt;" style="shape=umlActor;verticalLabelPosition=bottom;verticalAlign=top;html=1;outlineConnect=0;" vertex="1" parent="1">
          <mxGeometry x="49" y="1090" width="30" height="60" as="geometry" />
        </mxCell>
        <mxCell id="wD2OG6ifZxEcAoqdkh_1-35" style="edgeStyle=orthogonalEdgeStyle;rounded=0;orthogonalLoop=1;jettySize=auto;html=1;exitX=0.5;exitY=0;exitDx=0;exitDy=0;entryX=0.5;entryY=1;entryDx=0;entryDy=0;" edge="1" source="wD2OG6ifZxEcAoqdkh_1-39" target="wD2OG6ifZxEcAoqdkh_1-40" parent="1">
          <mxGeometry relative="1" as="geometry" />
        </mxCell>
        <mxCell id="wD2OG6ifZxEcAoqdkh_1-36" value="No" style="edgeLabel;html=1;align=center;verticalAlign=middle;resizable=0;points=[];" vertex="1" connectable="0" parent="wD2OG6ifZxEcAoqdkh_1-35">
          <mxGeometry x="0.02" y="-3" relative="1" as="geometry">
            <mxPoint x="17" y="1" as="offset" />
          </mxGeometry>
        </mxCell>
        <mxCell id="wD2OG6ifZxEcAoqdkh_1-37" style="edgeStyle=orthogonalEdgeStyle;rounded=0;orthogonalLoop=1;jettySize=auto;html=1;exitX=1;exitY=0.5;exitDx=0;exitDy=0;entryX=0;entryY=0.5;entryDx=0;entryDy=0;" edge="1" source="wD2OG6ifZxEcAoqdkh_1-39" target="wD2OG6ifZxEcAoqdkh_1-42" parent="1">
          <mxGeometry relative="1" as="geometry" />
        </mxCell>
        <mxCell id="wD2OG6ifZxEcAoqdkh_1-38" value="Create proposal" style="edgeLabel;html=1;align=center;verticalAlign=middle;resizable=0;points=[];" vertex="1" connectable="0" parent="wD2OG6ifZxEcAoqdkh_1-37">
          <mxGeometry x="-0.2909" relative="1" as="geometry">
            <mxPoint x="11" y="-10" as="offset" />
          </mxGeometry>
        </mxCell>
        <mxCell id="wD2OG6ifZxEcAoqdkh_1-39" value="Approved?" style="rhombus;whiteSpace=wrap;html=1;" vertex="1" parent="1">
          <mxGeometry x="359" y="970" width="80" height="80" as="geometry" />
        </mxCell>
        <mxCell id="wD2OG6ifZxEcAoqdkh_1-40" value="Rejected" style="rounded=1;whiteSpace=wrap;html=1;" vertex="1" parent="1">
          <mxGeometry x="354" y="890" width="90" height="30" as="geometry" />
        </mxCell>
        <mxCell id="wD2OG6ifZxEcAoqdkh_1-41" style="edgeStyle=orthogonalEdgeStyle;rounded=0;orthogonalLoop=1;jettySize=auto;html=1;exitX=1;exitY=0.5;exitDx=0;exitDy=0;entryX=0;entryY=0.5;entryDx=0;entryDy=0;" edge="1" source="wD2OG6ifZxEcAoqdkh_1-42" target="wD2OG6ifZxEcAoqdkh_1-50" parent="1">
          <mxGeometry relative="1" as="geometry" />
        </mxCell>
        <mxCell id="wD2OG6ifZxEcAoqdkh_1-42" value="&lt;font size=&quot;1&quot; color=&quot;#404040&quot; style=&quot;&quot;&gt;&lt;b style=&quot;font-size: 16px;&quot;&gt;Optimistic vote&lt;br&gt;&lt;/b&gt;&lt;/font&gt;&lt;span style=&quot;color: rgb(92, 92, 92);&quot;&gt;Standard delay&lt;/span&gt;&lt;font size=&quot;1&quot; color=&quot;#404040&quot; style=&quot;&quot;&gt;&lt;b style=&quot;font-size: 16px;&quot;&gt;&lt;br&gt;&lt;/b&gt;&lt;/font&gt;" style="rounded=1;whiteSpace=wrap;html=1;" vertex="1" parent="1">
          <mxGeometry x="549" y="980" width="170" height="60" as="geometry" />
        </mxCell>
        <mxCell id="wD2OG6ifZxEcAoqdkh_1-43" style="edgeStyle=orthogonalEdgeStyle;rounded=0;orthogonalLoop=1;jettySize=auto;html=1;entryX=0.5;entryY=1;entryDx=0;entryDy=0;" edge="1" target="wD2OG6ifZxEcAoqdkh_1-42" parent="1">
          <mxGeometry relative="1" as="geometry">
            <mxPoint x="530" y="1110" as="sourcePoint" />
            <Array as="points">
              <mxPoint x="549" y="1110" />
              <mxPoint x="634" y="1110" />
            </Array>
          </mxGeometry>
        </mxCell>
        <mxCell id="wD2OG6ifZxEcAoqdkh_1-44" value="Veto" style="edgeLabel;html=1;align=center;verticalAlign=middle;resizable=0;points=[];" vertex="1" connectable="0" parent="wD2OG6ifZxEcAoqdkh_1-43">
          <mxGeometry x="-0.1487" y="1" relative="1" as="geometry">
            <mxPoint x="8" y="66" as="offset" />
          </mxGeometry>
        </mxCell>
        <mxCell id="wD2OG6ifZxEcAoqdkh_1-49" value="No" style="edgeStyle=orthogonalEdgeStyle;rounded=0;orthogonalLoop=1;jettySize=auto;html=1;exitX=1;exitY=0.5;exitDx=0;exitDy=0;entryX=0;entryY=0.5;entryDx=0;entryDy=0;" edge="1" source="wD2OG6ifZxEcAoqdkh_1-50" target="wD2OG6ifZxEcAoqdkh_1-52" parent="1">
          <mxGeometry x="-0.2" y="-10" relative="1" as="geometry">
            <mxPoint as="offset" />
          </mxGeometry>
        </mxCell>
        <mxCell id="wD2OG6ifZxEcAoqdkh_1-50" value="Vetoed&lt;div&gt;after&amp;nbsp;&lt;/div&gt;&lt;div&gt;delay?&lt;/div&gt;" style="rhombus;whiteSpace=wrap;html=1;" vertex="1" parent="1">
          <mxGeometry x="769" y="960" width="100" height="100" as="geometry" />
        </mxCell>
        <mxCell id="wD2OG6ifZxEcAoqdkh_1-51" value="Rejected" style="rounded=1;whiteSpace=wrap;html=1;" vertex="1" parent="1">
          <mxGeometry x="774" y="890" width="90" height="30" as="geometry" />
        </mxCell>
        <mxCell id="wD2OG6ifZxEcAoqdkh_1-52" value="Executable" style="rounded=1;whiteSpace=wrap;html=1;" vertex="1" parent="1">
          <mxGeometry x="919" y="995" width="90" height="30" as="geometry" />
        </mxCell>
        <mxCell id="wD2OG6ifZxEcAoqdkh_1-54" value="Delegate" style="shape=umlActor;verticalLabelPosition=bottom;verticalAlign=top;html=1;outlineConnect=0;" vertex="1" parent="1">
          <mxGeometry x="480" y="1070" width="30" height="60" as="geometry" />
        </mxCell>
        <mxCell id="wD2OG6ifZxEcAoqdkh_1-58" style="edgeStyle=orthogonalEdgeStyle;rounded=0;orthogonalLoop=1;jettySize=auto;html=1;entryX=0.5;entryY=1;entryDx=0;entryDy=0;" edge="1" parent="1" target="wD2OG6ifZxEcAoqdkh_1-42">
          <mxGeometry relative="1" as="geometry">
            <mxPoint x="530" y="1190" as="sourcePoint" />
          </mxGeometry>
        </mxCell>
        <mxCell id="wD2OG6ifZxEcAoqdkh_1-57" value="Token holder" style="shape=umlActor;verticalLabelPosition=bottom;verticalAlign=top;html=1;outlineConnect=0;" vertex="1" parent="1">
          <mxGeometry x="480" y="1160" width="30" height="60" as="geometry" />
        </mxCell>
      </root>
    </mxGraphModel>
  </diagram>
  <diagram id="8vpa3lxcvuwuZr83Kq4M" name="Emergency proposal flow">
    <mxGraphModel dx="1460" dy="1434" grid="1" gridSize="10" guides="1" tooltips="1" connect="1" arrows="1" fold="1" page="0" pageScale="1" pageWidth="827" pageHeight="1169" math="0" shadow="0">
      <root>
        <mxCell id="0" />
        <mxCell id="1" parent="0" />
        <mxCell id="sKOwf1EYNC61HAYdxlM9-1" style="edgeStyle=orthogonalEdgeStyle;rounded=0;orthogonalLoop=1;jettySize=auto;html=1;entryX=0;entryY=0.5;entryDx=0;entryDy=0;" parent="1" source="sKOwf1EYNC61HAYdxlM9-3" target="sKOwf1EYNC61HAYdxlM9-5" edge="1">
          <mxGeometry relative="1" as="geometry" />
        </mxCell>
        <mxCell id="sKOwf1EYNC61HAYdxlM9-2" value="Create proposal" style="edgeLabel;html=1;align=center;verticalAlign=middle;resizable=0;points=[];" parent="sKOwf1EYNC61HAYdxlM9-1" vertex="1" connectable="0">
          <mxGeometry x="-0.0211" y="3" relative="1" as="geometry">
            <mxPoint y="-7" as="offset" />
          </mxGeometry>
        </mxCell>
        <mxCell id="sKOwf1EYNC61HAYdxlM9-3" value="Security Council&lt;div&gt;member&lt;/div&gt;" style="shape=umlActor;verticalLabelPosition=bottom;verticalAlign=top;html=1;outlineConnect=0;" parent="1" vertex="1">
          <mxGeometry x="-270" y="20" width="30" height="60" as="geometry" />
        </mxCell>
        <mxCell id="sKOwf1EYNC61HAYdxlM9-4" style="edgeStyle=orthogonalEdgeStyle;rounded=0;orthogonalLoop=1;jettySize=auto;html=1;exitX=1;exitY=0.5;exitDx=0;exitDy=0;entryX=0;entryY=0.5;entryDx=0;entryDy=0;" parent="1" source="sKOwf1EYNC61HAYdxlM9-5" target="sKOwf1EYNC61HAYdxlM9-13" edge="1">
          <mxGeometry relative="1" as="geometry" />
        </mxCell>
        <mxCell id="sKOwf1EYNC61HAYdxlM9-5" value="&lt;font size=&quot;1&quot; color=&quot;#404040&quot; style=&quot;&quot;&gt;&lt;b style=&quot;font-size: 16px;&quot;&gt;Multisig&lt;/b&gt;&lt;/font&gt;&lt;div&gt;&lt;font color=&quot;#5c5c5c&quot; style=&quot;font-size: 12px;&quot;&gt;Emergency&lt;/font&gt;&lt;/div&gt;" style="rounded=1;whiteSpace=wrap;html=1;" parent="1" vertex="1">
          <mxGeometry x="-120" y="20" width="120" height="60" as="geometry" />
        </mxCell>
        <mxCell id="sKOwf1EYNC61HAYdxlM9-6" style="edgeStyle=orthogonalEdgeStyle;rounded=0;orthogonalLoop=1;jettySize=auto;html=1;entryX=0.5;entryY=1;entryDx=0;entryDy=0;" parent="1" source="sKOwf1EYNC61HAYdxlM9-8" target="sKOwf1EYNC61HAYdxlM9-5" edge="1">
          <mxGeometry relative="1" as="geometry" />
        </mxCell>
        <mxCell id="sKOwf1EYNC61HAYdxlM9-7" value="Approve" style="edgeLabel;html=1;align=center;verticalAlign=middle;resizable=0;points=[];" parent="sKOwf1EYNC61HAYdxlM9-6" vertex="1" connectable="0">
          <mxGeometry x="-0.3091" y="4" relative="1" as="geometry">
            <mxPoint y="-6" as="offset" />
          </mxGeometry>
        </mxCell>
        <mxCell id="sKOwf1EYNC61HAYdxlM9-8" value="Security Council&lt;div&gt;member (M of N)&lt;/div&gt;" style="shape=umlActor;verticalLabelPosition=bottom;verticalAlign=top;html=1;outlineConnect=0;" parent="1" vertex="1">
          <mxGeometry x="-270" y="130" width="30" height="60" as="geometry" />
        </mxCell>
        <mxCell id="sKOwf1EYNC61HAYdxlM9-9" style="edgeStyle=orthogonalEdgeStyle;rounded=0;orthogonalLoop=1;jettySize=auto;html=1;exitX=0.5;exitY=0;exitDx=0;exitDy=0;entryX=0.5;entryY=1;entryDx=0;entryDy=0;" parent="1" source="sKOwf1EYNC61HAYdxlM9-13" target="sKOwf1EYNC61HAYdxlM9-14" edge="1">
          <mxGeometry relative="1" as="geometry" />
        </mxCell>
        <mxCell id="sKOwf1EYNC61HAYdxlM9-10" value="No" style="edgeLabel;html=1;align=center;verticalAlign=middle;resizable=0;points=[];" parent="sKOwf1EYNC61HAYdxlM9-9" vertex="1" connectable="0">
          <mxGeometry x="0.02" y="-3" relative="1" as="geometry">
            <mxPoint x="17" y="1" as="offset" />
          </mxGeometry>
        </mxCell>
        <mxCell id="sKOwf1EYNC61HAYdxlM9-11" style="edgeStyle=orthogonalEdgeStyle;rounded=0;orthogonalLoop=1;jettySize=auto;html=1;exitX=1;exitY=0.5;exitDx=0;exitDy=0;entryX=0;entryY=0.5;entryDx=0;entryDy=0;" parent="1" source="sKOwf1EYNC61HAYdxlM9-13" target="sKOwf1EYNC61HAYdxlM9-16" edge="1">
          <mxGeometry relative="1" as="geometry" />
        </mxCell>
        <mxCell id="sKOwf1EYNC61HAYdxlM9-12" value="Create proposal" style="edgeLabel;html=1;align=center;verticalAlign=middle;resizable=0;points=[];" parent="sKOwf1EYNC61HAYdxlM9-11" vertex="1" connectable="0">
          <mxGeometry x="-0.2909" relative="1" as="geometry">
            <mxPoint x="11" y="-10" as="offset" />
          </mxGeometry>
        </mxCell>
        <mxCell id="sKOwf1EYNC61HAYdxlM9-13" value="Super majority?" style="rhombus;whiteSpace=wrap;html=1;" parent="1" vertex="1">
          <mxGeometry x="40" y="10" width="80" height="80" as="geometry" />
        </mxCell>
        <mxCell id="sKOwf1EYNC61HAYdxlM9-14" value="Rejected" style="rounded=1;whiteSpace=wrap;html=1;" parent="1" vertex="1">
          <mxGeometry x="35" y="-70" width="90" height="30" as="geometry" />
        </mxCell>
        <mxCell id="sKOwf1EYNC61HAYdxlM9-15" style="edgeStyle=orthogonalEdgeStyle;rounded=0;orthogonalLoop=1;jettySize=auto;html=1;exitX=0.5;exitY=1;exitDx=0;exitDy=0;entryX=0.5;entryY=0;entryDx=0;entryDy=0;" parent="1" source="sKOwf1EYNC61HAYdxlM9-16" target="sKOwf1EYNC61HAYdxlM9-24" edge="1">
          <mxGeometry relative="1" as="geometry" />
        </mxCell>
        <mxCell id="sKOwf1EYNC61HAYdxlM9-16" value="&lt;font size=&quot;1&quot; color=&quot;#404040&quot; style=&quot;&quot;&gt;&lt;b style=&quot;font-size: 16px;&quot;&gt;Optimistic vote&lt;br&gt;&lt;/b&gt;&lt;/font&gt;&lt;span style=&quot;color: rgb(92, 92, 92);&quot;&gt;Zero delay&lt;/span&gt;&lt;font size=&quot;1&quot; color=&quot;#404040&quot; style=&quot;&quot;&gt;&lt;b style=&quot;font-size: 16px;&quot;&gt;&lt;br&gt;&lt;/b&gt;&lt;/font&gt;" style="rounded=1;whiteSpace=wrap;html=1;" parent="1" vertex="1">
          <mxGeometry x="230" y="20" width="170" height="60" as="geometry" />
        </mxCell>
        <mxCell id="sKOwf1EYNC61HAYdxlM9-23" value="No" style="edgeStyle=orthogonalEdgeStyle;rounded=0;orthogonalLoop=1;jettySize=auto;html=1;exitX=1;exitY=0.5;exitDx=0;exitDy=0;entryX=0;entryY=0.5;entryDx=0;entryDy=0;" parent="1" source="sKOwf1EYNC61HAYdxlM9-24" target="sKOwf1EYNC61HAYdxlM9-26" edge="1">
          <mxGeometry x="-0.2" y="-10" relative="1" as="geometry">
            <mxPoint as="offset" />
          </mxGeometry>
        </mxCell>
        <mxCell id="sKOwf1EYNC61HAYdxlM9-24" value="Vetoed&lt;div&gt;after&amp;nbsp;&lt;/div&gt;&lt;div&gt;delay?&lt;/div&gt;" style="rhombus;whiteSpace=wrap;html=1;" parent="1" vertex="1">
          <mxGeometry x="265" y="130" width="100" height="100" as="geometry" />
        </mxCell>
        <mxCell id="sKOwf1EYNC61HAYdxlM9-26" value="Executable" style="rounded=1;whiteSpace=wrap;html=1;" parent="1" vertex="1">
          <mxGeometry x="420" y="165" width="90" height="30" as="geometry" />
        </mxCell>
      </root>
    </mxGraphModel>
  </diagram>
  <diagram name="SC key registration" id="kFASDDCP24WouewbTvpv">
    <mxGraphModel dx="1460" dy="1034" grid="1" gridSize="10" guides="1" tooltips="1" connect="1" arrows="1" fold="1" page="0" pageScale="1" pageWidth="827" pageHeight="1169" math="0" shadow="0">
      <root>
        <mxCell id="gfxmZlwF10-dMQPabPGH-0" />
        <mxCell id="gfxmZlwF10-dMQPabPGH-1" parent="gfxmZlwF10-dMQPabPGH-0" />
        <mxCell id="gfxmZlwF10-dMQPabPGH-2" style="edgeStyle=orthogonalEdgeStyle;rounded=0;orthogonalLoop=1;jettySize=auto;html=1;entryX=0;entryY=0.5;entryDx=0;entryDy=0;" parent="gfxmZlwF10-dMQPabPGH-1" source="gfxmZlwF10-dMQPabPGH-4" target="gfxmZlwF10-dMQPabPGH-6" edge="1">
          <mxGeometry relative="1" as="geometry" />
        </mxCell>
        <mxCell id="gfxmZlwF10-dMQPabPGH-3" value="Derive" style="edgeLabel;html=1;align=center;verticalAlign=middle;resizable=0;points=[];" parent="gfxmZlwF10-dMQPabPGH-2" vertex="1" connectable="0">
          <mxGeometry x="-0.0211" y="3" relative="1" as="geometry">
            <mxPoint y="-7" as="offset" />
          </mxGeometry>
        </mxCell>
        <mxCell id="gfxmZlwF10-dMQPabPGH-4" value="Security Council&lt;div&gt;members&lt;/div&gt;" style="shape=umlActor;verticalLabelPosition=bottom;verticalAlign=top;html=1;outlineConnect=0;" parent="gfxmZlwF10-dMQPabPGH-1" vertex="1">
          <mxGeometry x="-270" y="20" width="30" height="60" as="geometry" />
        </mxCell>
        <mxCell id="gfxmZlwF10-dMQPabPGH-5" style="edgeStyle=orthogonalEdgeStyle;rounded=0;orthogonalLoop=1;jettySize=auto;html=1;exitX=1;exitY=0.5;exitDx=0;exitDy=0;entryX=0;entryY=0.5;entryDx=0;entryDy=0;" parent="gfxmZlwF10-dMQPabPGH-1" source="gfxmZlwF10-dMQPabPGH-6" target="k2ZObkXfo4vco4orRKXB-0" edge="1">
          <mxGeometry relative="1" as="geometry">
            <mxPoint x="40" y="50" as="targetPoint" />
          </mxGeometry>
        </mxCell>
        <mxCell id="k2ZObkXfo4vco4orRKXB-1" value="Register" style="edgeLabel;html=1;align=center;verticalAlign=middle;resizable=0;points=[];" parent="gfxmZlwF10-dMQPabPGH-5" vertex="1" connectable="0">
          <mxGeometry x="-0.18" y="1" relative="1" as="geometry">
            <mxPoint x="9" y="-9" as="offset" />
          </mxGeometry>
        </mxCell>
        <mxCell id="gfxmZlwF10-dMQPabPGH-6" value="&lt;font size=&quot;1&quot; color=&quot;#404040&quot; style=&quot;&quot;&gt;&lt;b style=&quot;font-size: 16px;&quot;&gt;Deterministic private key&lt;/b&gt;&lt;/font&gt;" style="rounded=1;whiteSpace=wrap;html=1;" parent="gfxmZlwF10-dMQPabPGH-1" vertex="1">
          <mxGeometry x="-130" y="20" width="150" height="60" as="geometry" />
        </mxCell>
        <mxCell id="k2ZObkXfo4vco4orRKXB-0" value="&lt;font color=&quot;#404040&quot;&gt;&lt;span style=&quot;font-size: 16px;&quot;&gt;&lt;b&gt;Public Key&lt;br&gt;Registry&lt;/b&gt;&lt;/span&gt;&lt;/font&gt;" style="rounded=1;whiteSpace=wrap;html=1;" parent="gfxmZlwF10-dMQPabPGH-1" vertex="1">
          <mxGeometry x="120" y="20" width="140" height="60" as="geometry" />
        </mxCell>
      </root>
    </mxGraphModel>
  </diagram>
  <diagram name="Emergency proposal encryption" id="4L5rT8oWL4gxqy95oKWm">
    <mxGraphModel dx="1460" dy="1434" grid="1" gridSize="10" guides="1" tooltips="1" connect="1" arrows="1" fold="1" page="0" pageScale="1" pageWidth="827" pageHeight="1169" math="0" shadow="0">
      <root>
        <mxCell id="IV4kbXuCVdMxD--1DV_a-0" />
        <mxCell id="IV4kbXuCVdMxD--1DV_a-1" parent="IV4kbXuCVdMxD--1DV_a-0" />
        <mxCell id="IV4kbXuCVdMxD--1DV_a-2" style="edgeStyle=orthogonalEdgeStyle;rounded=0;orthogonalLoop=1;jettySize=auto;html=1;entryX=0;entryY=0.5;entryDx=0;entryDy=0;" parent="IV4kbXuCVdMxD--1DV_a-1" target="ej5gnR4F3szowusU-mX2-0" edge="1">
          <mxGeometry relative="1" as="geometry">
            <mxPoint x="-260" y="140" as="sourcePoint" />
            <mxPoint x="-180" y="50" as="targetPoint" />
            <Array as="points">
              <mxPoint x="-260" y="200" />
            </Array>
          </mxGeometry>
        </mxCell>
        <mxCell id="II7FZPDerkN1gOirOMmp-0" value="Get public keys" style="edgeLabel;html=1;align=center;verticalAlign=middle;resizable=0;points=[];" parent="IV4kbXuCVdMxD--1DV_a-2" vertex="1" connectable="0">
          <mxGeometry x="-0.2" y="-1" relative="1" as="geometry">
            <mxPoint x="46" y="9" as="offset" />
          </mxGeometry>
        </mxCell>
        <mxCell id="II7FZPDerkN1gOirOMmp-8" style="edgeStyle=orthogonalEdgeStyle;rounded=0;orthogonalLoop=1;jettySize=auto;html=1;entryX=0;entryY=0.25;entryDx=0;entryDy=0;" parent="IV4kbXuCVdMxD--1DV_a-1" source="IV4kbXuCVdMxD--1DV_a-4" target="II7FZPDerkN1gOirOMmp-4" edge="1">
          <mxGeometry relative="1" as="geometry">
            <Array as="points">
              <mxPoint x="-260" y="-55" />
            </Array>
          </mxGeometry>
        </mxCell>
        <mxCell id="II7FZPDerkN1gOirOMmp-10" value="Proposal details, actions" style="edgeLabel;html=1;align=center;verticalAlign=middle;resizable=0;points=[];" parent="II7FZPDerkN1gOirOMmp-8" vertex="1" connectable="0">
          <mxGeometry x="0.1213" relative="1" as="geometry">
            <mxPoint x="-8" y="-14" as="offset" />
          </mxGeometry>
        </mxCell>
        <mxCell id="II7FZPDerkN1gOirOMmp-9" style="edgeStyle=orthogonalEdgeStyle;rounded=0;orthogonalLoop=1;jettySize=auto;html=1;entryX=0;entryY=0.75;entryDx=0;entryDy=0;" parent="IV4kbXuCVdMxD--1DV_a-1" source="IV4kbXuCVdMxD--1DV_a-4" target="II7FZPDerkN1gOirOMmp-4" edge="1">
          <mxGeometry relative="1" as="geometry">
            <Array as="points">
              <mxPoint x="-260" y="-25" />
            </Array>
          </mxGeometry>
        </mxCell>
        <mxCell id="II7FZPDerkN1gOirOMmp-11" value="Ephemeral symmetric key" style="edgeLabel;html=1;align=center;verticalAlign=middle;resizable=0;points=[];" parent="II7FZPDerkN1gOirOMmp-9" vertex="1" connectable="0">
          <mxGeometry x="-0.0036" y="4" relative="1" as="geometry">
            <mxPoint x="-4" y="16" as="offset" />
          </mxGeometry>
        </mxCell>
        <mxCell id="IV4kbXuCVdMxD--1DV_a-4" value="Security Council&lt;div&gt;proposer&lt;/div&gt;" style="shape=umlActor;verticalLabelPosition=bottom;verticalAlign=top;html=1;outlineConnect=0;" parent="IV4kbXuCVdMxD--1DV_a-1" vertex="1">
          <mxGeometry x="-276" y="20" width="30" height="60" as="geometry" />
        </mxCell>
        <mxCell id="II7FZPDerkN1gOirOMmp-2" style="edgeStyle=orthogonalEdgeStyle;rounded=0;orthogonalLoop=1;jettySize=auto;html=1;exitX=0.5;exitY=0;exitDx=0;exitDy=0;entryX=0;entryY=0.75;entryDx=0;entryDy=0;" parent="IV4kbXuCVdMxD--1DV_a-1" source="ej5gnR4F3szowusU-mX2-0" target="II7FZPDerkN1gOirOMmp-1" edge="1">
          <mxGeometry relative="1" as="geometry" />
        </mxCell>
        <mxCell id="II7FZPDerkN1gOirOMmp-3" value="SC member&#39;s&lt;div&gt;public keys&lt;/div&gt;" style="edgeLabel;html=1;align=center;verticalAlign=middle;resizable=0;points=[];" parent="II7FZPDerkN1gOirOMmp-2" vertex="1" connectable="0">
          <mxGeometry x="-0.1111" relative="1" as="geometry">
            <mxPoint x="30" y="25" as="offset" />
          </mxGeometry>
        </mxCell>
        <mxCell id="ej5gnR4F3szowusU-mX2-0" value="&lt;font color=&quot;#404040&quot;&gt;&lt;span style=&quot;font-size: 16px;&quot;&gt;&lt;b&gt;Public Key&lt;br&gt;Registry&lt;/b&gt;&lt;/span&gt;&lt;/font&gt;" style="rounded=1;whiteSpace=wrap;html=1;" parent="IV4kbXuCVdMxD--1DV_a-1" vertex="1">
          <mxGeometry x="-160" y="170" width="150" height="60" as="geometry" />
        </mxCell>
        <mxCell id="II7FZPDerkN1gOirOMmp-15" style="edgeStyle=orthogonalEdgeStyle;rounded=0;orthogonalLoop=1;jettySize=auto;html=1;entryX=0;entryY=0.75;entryDx=0;entryDy=0;" parent="IV4kbXuCVdMxD--1DV_a-1" source="II7FZPDerkN1gOirOMmp-1" target="II7FZPDerkN1gOirOMmp-14" edge="1">
          <mxGeometry relative="1" as="geometry">
            <Array as="points">
              <mxPoint x="210" y="90" />
              <mxPoint x="210" y="45" />
            </Array>
          </mxGeometry>
        </mxCell>
        <mxCell id="II7FZPDerkN1gOirOMmp-17" value="Encrypted symmetric key&lt;div&gt;per SC member&lt;/div&gt;" style="edgeLabel;html=1;align=center;verticalAlign=middle;resizable=0;points=[];" parent="II7FZPDerkN1gOirOMmp-15" vertex="1" connectable="0">
          <mxGeometry x="-0.531" y="-2" relative="1" as="geometry">
            <mxPoint x="36" y="18" as="offset" />
          </mxGeometry>
        </mxCell>
        <mxCell id="II7FZPDerkN1gOirOMmp-1" value="&lt;font color=&quot;#404040&quot;&gt;&lt;span style=&quot;font-size: 16px;&quot;&gt;&lt;b&gt;Encrypt&lt;/b&gt;&lt;/span&gt;&lt;/font&gt;" style="rounded=1;whiteSpace=wrap;html=1;" parent="IV4kbXuCVdMxD--1DV_a-1" vertex="1">
          <mxGeometry x="30" y="60" width="110" height="60" as="geometry" />
        </mxCell>
        <mxCell id="II7FZPDerkN1gOirOMmp-12" style="edgeStyle=orthogonalEdgeStyle;rounded=0;orthogonalLoop=1;jettySize=auto;html=1;entryX=0;entryY=0.25;entryDx=0;entryDy=0;" parent="IV4kbXuCVdMxD--1DV_a-1" source="II7FZPDerkN1gOirOMmp-4" target="II7FZPDerkN1gOirOMmp-14" edge="1">
          <mxGeometry relative="1" as="geometry">
            <mxPoint x="240" y="-40" as="targetPoint" />
            <Array as="points">
              <mxPoint x="210" y="-40" />
              <mxPoint x="210" y="15" />
            </Array>
          </mxGeometry>
        </mxCell>
        <mxCell id="II7FZPDerkN1gOirOMmp-16" value="Encrypted details" style="edgeLabel;html=1;align=center;verticalAlign=middle;resizable=0;points=[];" parent="II7FZPDerkN1gOirOMmp-12" vertex="1" connectable="0">
          <mxGeometry x="-0.4884" relative="1" as="geometry">
            <mxPoint x="5" y="-10" as="offset" />
          </mxGeometry>
        </mxCell>
        <mxCell id="II7FZPDerkN1gOirOMmp-13" style="edgeStyle=orthogonalEdgeStyle;rounded=0;orthogonalLoop=1;jettySize=auto;html=1;entryX=0;entryY=0.25;entryDx=0;entryDy=0;" parent="IV4kbXuCVdMxD--1DV_a-1" target="II7FZPDerkN1gOirOMmp-1" edge="1">
          <mxGeometry relative="1" as="geometry">
            <mxPoint x="-150" as="sourcePoint" />
            <Array as="points">
              <mxPoint x="-150" y="75" />
            </Array>
          </mxGeometry>
        </mxCell>
        <mxCell id="-qCfn2XkEbXb2CAXPtcW-0" style="edgeStyle=orthogonalEdgeStyle;rounded=0;orthogonalLoop=1;jettySize=auto;html=1;entryX=1;entryY=0.5;entryDx=0;entryDy=0;" parent="IV4kbXuCVdMxD--1DV_a-1" target="II7FZPDerkN1gOirOMmp-20" edge="1">
          <mxGeometry relative="1" as="geometry">
            <mxPoint x="-150" y="-80" as="sourcePoint" />
            <Array as="points">
              <mxPoint x="-150" y="-90" />
              <mxPoint x="550" y="-90" />
              <mxPoint x="550" y="150" />
            </Array>
          </mxGeometry>
        </mxCell>
        <mxCell id="-qCfn2XkEbXb2CAXPtcW-1" value="&lt;span style=&quot;text-align: left;&quot;&gt;hash(actions)&lt;/span&gt;" style="edgeLabel;html=1;align=center;verticalAlign=middle;resizable=0;points=[];" parent="-qCfn2XkEbXb2CAXPtcW-0" vertex="1" connectable="0">
          <mxGeometry x="0.2283" y="-1" relative="1" as="geometry">
            <mxPoint x="62" y="9" as="offset" />
          </mxGeometry>
        </mxCell>
        <mxCell id="II7FZPDerkN1gOirOMmp-4" value="&lt;font color=&quot;#404040&quot;&gt;&lt;span style=&quot;font-size: 16px;&quot;&gt;&lt;b&gt;Encrypt&lt;/b&gt;&lt;/span&gt;&lt;/font&gt;" style="rounded=1;whiteSpace=wrap;html=1;" parent="IV4kbXuCVdMxD--1DV_a-1" vertex="1">
          <mxGeometry x="-30" y="-70" width="110" height="60" as="geometry" />
        </mxCell>
        <mxCell id="II7FZPDerkN1gOirOMmp-19" style="edgeStyle=orthogonalEdgeStyle;rounded=0;orthogonalLoop=1;jettySize=auto;html=1;exitX=1;exitY=0.5;exitDx=0;exitDy=0;entryX=0;entryY=0.5;entryDx=0;entryDy=0;" parent="IV4kbXuCVdMxD--1DV_a-1" source="II7FZPDerkN1gOirOMmp-14" target="II7FZPDerkN1gOirOMmp-18" edge="1">
          <mxGeometry relative="1" as="geometry" />
        </mxCell>
        <mxCell id="II7FZPDerkN1gOirOMmp-23" value="Pin" style="edgeLabel;html=1;align=center;verticalAlign=middle;resizable=0;points=[];" parent="II7FZPDerkN1gOirOMmp-19" vertex="1" connectable="0">
          <mxGeometry y="-1" relative="1" as="geometry">
            <mxPoint x="-2" y="8" as="offset" />
          </mxGeometry>
        </mxCell>
        <mxCell id="II7FZPDerkN1gOirOMmp-14" value="&lt;font color=&quot;#404040&quot;&gt;&lt;span style=&quot;font-size: 16px;&quot;&gt;&lt;b&gt;Proposal payload&lt;/b&gt;&lt;/span&gt;&lt;/font&gt;" style="rounded=1;whiteSpace=wrap;html=1;" parent="IV4kbXuCVdMxD--1DV_a-1" vertex="1">
          <mxGeometry x="240" width="110" height="60" as="geometry" />
        </mxCell>
        <mxCell id="II7FZPDerkN1gOirOMmp-21" style="edgeStyle=orthogonalEdgeStyle;rounded=0;orthogonalLoop=1;jettySize=auto;html=1;entryX=0.5;entryY=0;entryDx=0;entryDy=0;" parent="IV4kbXuCVdMxD--1DV_a-1" source="II7FZPDerkN1gOirOMmp-18" target="II7FZPDerkN1gOirOMmp-20" edge="1">
          <mxGeometry relative="1" as="geometry" />
        </mxCell>
        <mxCell id="II7FZPDerkN1gOirOMmp-22" value="URI" style="edgeLabel;html=1;align=left;verticalAlign=middle;resizable=0;points=[];" parent="II7FZPDerkN1gOirOMmp-21" vertex="1" connectable="0">
          <mxGeometry x="-0.05" y="2" relative="1" as="geometry">
            <mxPoint x="-27" y="1" as="offset" />
          </mxGeometry>
        </mxCell>
        <mxCell id="II7FZPDerkN1gOirOMmp-18" value="&lt;font color=&quot;#404040&quot;&gt;&lt;span style=&quot;font-size: 16px;&quot;&gt;&lt;b&gt;IPFS&lt;/b&gt;&lt;/span&gt;&lt;/font&gt;" style="rounded=1;whiteSpace=wrap;html=1;" parent="IV4kbXuCVdMxD--1DV_a-1" vertex="1">
          <mxGeometry x="400" width="110" height="60" as="geometry" />
        </mxCell>
        <mxCell id="II7FZPDerkN1gOirOMmp-20" value="&lt;font color=&quot;#404040&quot;&gt;&lt;span style=&quot;font-size: 16px;&quot;&gt;&lt;b&gt;Emergency multisig&lt;/b&gt;&lt;/span&gt;&lt;/font&gt;" style="rounded=1;whiteSpace=wrap;html=1;" parent="IV4kbXuCVdMxD--1DV_a-1" vertex="1">
          <mxGeometry x="400" y="120" width="110" height="60" as="geometry" />
        </mxCell>
      </root>
    </mxGraphModel>
  </diagram>
  <diagram id="ckL_1I8ZFRjVy_QccyuO" name="Emergency proposal decryption">
    <mxGraphModel dx="1460" dy="1434" grid="1" gridSize="10" guides="1" tooltips="1" connect="1" arrows="1" fold="1" page="0" pageScale="1" pageWidth="827" pageHeight="1169" math="0" shadow="0">
      <root>
        <mxCell id="0" />
        <mxCell id="1" parent="0" />
        <mxCell id="zvg23RnRrW3wjWvZ2YEo-5" style="edgeStyle=orthogonalEdgeStyle;rounded=0;orthogonalLoop=1;jettySize=auto;html=1;entryX=0;entryY=0.5;entryDx=0;entryDy=0;" parent="1" source="wgvNCMN0IjlwN4QNLjhG-1" target="zvg23RnRrW3wjWvZ2YEo-4" edge="1">
          <mxGeometry relative="1" as="geometry">
            <Array as="points">
              <mxPoint x="-190" y="50" />
              <mxPoint x="-190" y="110" />
            </Array>
          </mxGeometry>
        </mxCell>
        <mxCell id="zvg23RnRrW3wjWvZ2YEo-6" value="Get proposal" style="edgeLabel;html=1;align=center;verticalAlign=middle;resizable=0;points=[];" parent="zvg23RnRrW3wjWvZ2YEo-5" vertex="1" connectable="0">
          <mxGeometry x="0.4375" y="-1" relative="1" as="geometry">
            <mxPoint x="7" y="12" as="offset" />
          </mxGeometry>
        </mxCell>
        <mxCell id="wgvNCMN0IjlwN4QNLjhG-1" value="Security Council&lt;div&gt;members&lt;/div&gt;" style="shape=umlActor;verticalLabelPosition=bottom;verticalAlign=top;html=1;outlineConnect=0;" parent="1" vertex="1">
          <mxGeometry x="-270" y="20" width="30" height="60" as="geometry" />
        </mxCell>
        <mxCell id="kOYuhX4NNcMesie5rEuw-1" style="edgeStyle=orthogonalEdgeStyle;rounded=0;orthogonalLoop=1;jettySize=auto;html=1;entryX=0;entryY=0.5;entryDx=0;entryDy=0;" parent="1" target="kOYuhX4NNcMesie5rEuw-3" edge="1">
          <mxGeometry relative="1" as="geometry">
            <mxPoint x="-240" y="50" as="sourcePoint" />
            <Array as="points">
              <mxPoint x="-190" y="50" />
              <mxPoint x="-190" y="-60" />
            </Array>
          </mxGeometry>
        </mxCell>
        <mxCell id="kOYuhX4NNcMesie5rEuw-2" value="Derive" style="edgeLabel;html=1;align=center;verticalAlign=middle;resizable=0;points=[];" parent="kOYuhX4NNcMesie5rEuw-1" vertex="1" connectable="0">
          <mxGeometry x="-0.0211" y="3" relative="1" as="geometry">
            <mxPoint x="19" y="-67" as="offset" />
          </mxGeometry>
        </mxCell>
        <mxCell id="k3CU6TP85rjrAM1Exs9o-7" style="edgeStyle=orthogonalEdgeStyle;rounded=0;orthogonalLoop=1;jettySize=auto;html=1;exitX=1;exitY=0.5;exitDx=0;exitDy=0;entryX=0;entryY=0.25;entryDx=0;entryDy=0;" parent="1" source="kOYuhX4NNcMesie5rEuw-3" target="zvg23RnRrW3wjWvZ2YEo-8" edge="1">
          <mxGeometry relative="1" as="geometry">
            <Array as="points">
              <mxPoint x="70" y="-60" />
              <mxPoint x="70" y="-27" />
            </Array>
          </mxGeometry>
        </mxCell>
        <mxCell id="k3CU6TP85rjrAM1Exs9o-8" value="SC member&lt;br&gt;private key" style="edgeLabel;html=1;align=left;verticalAlign=middle;resizable=0;points=[];" parent="k3CU6TP85rjrAM1Exs9o-7" vertex="1" connectable="0">
          <mxGeometry x="-0.3647" y="-2" relative="1" as="geometry">
            <mxPoint x="12" y="2" as="offset" />
          </mxGeometry>
        </mxCell>
        <mxCell id="kOYuhX4NNcMesie5rEuw-3" value="&lt;font size=&quot;1&quot; color=&quot;#404040&quot; style=&quot;&quot;&gt;&lt;b style=&quot;font-size: 16px;&quot;&gt;Deterministic private key&lt;/b&gt;&lt;/font&gt;" style="rounded=1;whiteSpace=wrap;html=1;" parent="1" vertex="1">
          <mxGeometry x="-140" y="-90" width="150" height="60" as="geometry" />
        </mxCell>
        <mxCell id="zvg23RnRrW3wjWvZ2YEo-1" style="edgeStyle=orthogonalEdgeStyle;rounded=0;orthogonalLoop=1;jettySize=auto;html=1;entryX=0;entryY=0.5;entryDx=0;entryDy=0;exitX=1;exitY=0.5;exitDx=0;exitDy=0;" parent="1" source="zvg23RnRrW3wjWvZ2YEo-4" target="zvg23RnRrW3wjWvZ2YEo-3" edge="1">
          <mxGeometry relative="1" as="geometry">
            <Array as="points">
              <mxPoint x="-10" y="110" />
              <mxPoint x="-10" y="80" />
            </Array>
          </mxGeometry>
        </mxCell>
        <mxCell id="zvg23RnRrW3wjWvZ2YEo-2" value="URI" style="edgeLabel;html=1;align=center;verticalAlign=middle;resizable=0;points=[];" parent="zvg23RnRrW3wjWvZ2YEo-1" vertex="1" connectable="0">
          <mxGeometry x="-0.05" y="2" relative="1" as="geometry">
            <mxPoint x="13" y="-20" as="offset" />
          </mxGeometry>
        </mxCell>
        <mxCell id="zvg23RnRrW3wjWvZ2YEo-10" style="edgeStyle=orthogonalEdgeStyle;rounded=0;orthogonalLoop=1;jettySize=auto;html=1;entryX=0;entryY=0.75;entryDx=0;entryDy=0;exitX=0.5;exitY=0;exitDx=0;exitDy=0;" parent="1" source="zvg23RnRrW3wjWvZ2YEo-3" target="zvg23RnRrW3wjWvZ2YEo-8" edge="1">
          <mxGeometry relative="1" as="geometry">
            <Array as="points">
              <mxPoint x="70" y="-2" />
            </Array>
          </mxGeometry>
        </mxCell>
        <mxCell id="xbN65CFIQN-J-LEfUWAi-1" value="Encrypted&amp;nbsp;&lt;div&gt;symmetric keys&lt;/div&gt;" style="edgeLabel;html=1;align=left;verticalAlign=middle;resizable=0;points=[];" parent="zvg23RnRrW3wjWvZ2YEo-10" vertex="1" connectable="0">
          <mxGeometry x="-0.5446" y="2" relative="1" as="geometry">
            <mxPoint x="12" y="9" as="offset" />
          </mxGeometry>
        </mxCell>
        <mxCell id="zvg23RnRrW3wjWvZ2YEo-3" value="&lt;font color=&quot;#404040&quot;&gt;&lt;span style=&quot;font-size: 16px;&quot;&gt;&lt;b&gt;IPFS&lt;/b&gt;&lt;/span&gt;&lt;/font&gt;" style="rounded=1;whiteSpace=wrap;html=1;" parent="1" vertex="1">
          <mxGeometry x="30" y="50" width="80" height="60" as="geometry" />
        </mxCell>
        <mxCell id="zvg23RnRrW3wjWvZ2YEo-7" style="edgeStyle=orthogonalEdgeStyle;rounded=0;orthogonalLoop=1;jettySize=auto;html=1;exitX=1;exitY=0.5;exitDx=0;exitDy=0;entryX=0;entryY=0.5;entryDx=0;entryDy=0;" parent="1" source="zvg23RnRrW3wjWvZ2YEo-4" target="k3CU6TP85rjrAM1Exs9o-3" edge="1">
          <mxGeometry relative="1" as="geometry">
            <mxPoint x="310" y="170" as="targetPoint" />
            <Array as="points">
              <mxPoint x="-10" y="110" />
              <mxPoint x="-10" y="185" />
            </Array>
          </mxGeometry>
        </mxCell>
        <mxCell id="k3CU6TP85rjrAM1Exs9o-4" value="Actions hash" style="edgeLabel;html=1;align=center;verticalAlign=middle;resizable=0;points=[];" parent="zvg23RnRrW3wjWvZ2YEo-7" vertex="1" connectable="0">
          <mxGeometry x="-0.1478" y="-2" relative="1" as="geometry">
            <mxPoint x="90" y="-17" as="offset" />
          </mxGeometry>
        </mxCell>
        <mxCell id="zvg23RnRrW3wjWvZ2YEo-4" value="&lt;font color=&quot;#404040&quot;&gt;&lt;span style=&quot;font-size: 16px;&quot;&gt;&lt;b&gt;Emergency multisig&lt;/b&gt;&lt;/span&gt;&lt;/font&gt;" style="rounded=1;whiteSpace=wrap;html=1;" parent="1" vertex="1">
          <mxGeometry x="-140" y="80" width="110" height="60" as="geometry" />
        </mxCell>
        <mxCell id="xbN65CFIQN-J-LEfUWAi-3" style="edgeStyle=orthogonalEdgeStyle;rounded=0;orthogonalLoop=1;jettySize=auto;html=1;exitX=1;exitY=0.5;exitDx=0;exitDy=0;entryX=0.5;entryY=0;entryDx=0;entryDy=0;" parent="1" source="zvg23RnRrW3wjWvZ2YEo-8" target="xbN65CFIQN-J-LEfUWAi-4" edge="1">
          <mxGeometry relative="1" as="geometry">
            <mxPoint x="390" y="70" as="targetPoint" />
          </mxGeometry>
        </mxCell>
        <mxCell id="xbN65CFIQN-J-LEfUWAi-6" value="Ephemeral &lt;br&gt;symmetric key" style="edgeLabel;html=1;align=left;verticalAlign=middle;resizable=0;points=[];" parent="xbN65CFIQN-J-LEfUWAi-3" vertex="1" connectable="0">
          <mxGeometry x="-0.1826" relative="1" as="geometry">
            <mxPoint x="10" y="22" as="offset" />
          </mxGeometry>
        </mxCell>
        <mxCell id="zvg23RnRrW3wjWvZ2YEo-8" value="&lt;font color=&quot;#404040&quot;&gt;&lt;span style=&quot;font-size: 16px;&quot;&gt;&lt;b&gt;Decrypt&lt;/b&gt;&lt;/span&gt;&lt;/font&gt;" style="rounded=1;whiteSpace=wrap;html=1;" parent="1" vertex="1">
          <mxGeometry x="170" y="-40" width="100" height="50" as="geometry" />
        </mxCell>
        <mxCell id="k3CU6TP85rjrAM1Exs9o-1" style="edgeStyle=orthogonalEdgeStyle;rounded=0;orthogonalLoop=1;jettySize=auto;html=1;exitX=1;exitY=0.5;exitDx=0;exitDy=0;" parent="1" source="k3CU6TP85rjrAM1Exs9o-2" edge="1">
          <mxGeometry relative="1" as="geometry">
            <mxPoint x="470" y="95" as="targetPoint" />
          </mxGeometry>
        </mxCell>
        <mxCell id="k3CU6TP85rjrAM1Exs9o-5" style="edgeStyle=orthogonalEdgeStyle;rounded=0;orthogonalLoop=1;jettySize=auto;html=1;exitX=0.5;exitY=1;exitDx=0;exitDy=0;entryX=0.5;entryY=0;entryDx=0;entryDy=0;" parent="1" source="k3CU6TP85rjrAM1Exs9o-2" target="k3CU6TP85rjrAM1Exs9o-3" edge="1">
          <mxGeometry relative="1" as="geometry" />
        </mxCell>
        <mxCell id="k3CU6TP85rjrAM1Exs9o-6" value="Actions" style="edgeLabel;html=1;align=center;verticalAlign=middle;resizable=0;points=[];" parent="k3CU6TP85rjrAM1Exs9o-5" vertex="1" connectable="0">
          <mxGeometry x="0.175" relative="1" as="geometry">
            <mxPoint x="20" y="-4" as="offset" />
          </mxGeometry>
        </mxCell>
        <mxCell id="k3CU6TP85rjrAM1Exs9o-3" value="&lt;font color=&quot;#404040&quot;&gt;&lt;span style=&quot;font-size: 16px;&quot;&gt;&lt;b&gt;Verify actions&lt;/b&gt;&lt;/span&gt;&lt;/font&gt;" style="rounded=1;whiteSpace=wrap;html=1;" parent="1" vertex="1">
          <mxGeometry x="390" y="160" width="100" height="50" as="geometry" />
        </mxCell>
        <mxCell id="k3CU6TP85rjrAM1Exs9o-9" value="" style="edgeStyle=orthogonalEdgeStyle;rounded=0;orthogonalLoop=1;jettySize=auto;html=1;exitX=1;exitY=0.75;exitDx=0;exitDy=0;" parent="1" source="zvg23RnRrW3wjWvZ2YEo-3" target="xbN65CFIQN-J-LEfUWAi-4" edge="1">
          <mxGeometry relative="1" as="geometry">
            <mxPoint x="320" y="95" as="targetPoint" />
            <mxPoint x="110" y="95" as="sourcePoint" />
          </mxGeometry>
        </mxCell>
        <mxCell id="k3CU6TP85rjrAM1Exs9o-10" value="Encrypted&amp;nbsp;&lt;div&gt;proposal details&lt;/div&gt;" style="edgeLabel;html=1;align=center;verticalAlign=middle;resizable=0;points=[];" parent="k3CU6TP85rjrAM1Exs9o-9" vertex="1" connectable="0">
          <mxGeometry x="-0.1544" y="1" relative="1" as="geometry">
            <mxPoint x="12" y="16" as="offset" />
          </mxGeometry>
        </mxCell>
        <mxCell id="xbN65CFIQN-J-LEfUWAi-4" value="&lt;font color=&quot;#404040&quot;&gt;&lt;span style=&quot;font-size: 16px;&quot;&gt;&lt;b&gt;Decrypt&lt;/b&gt;&lt;/span&gt;&lt;/font&gt;" style="rounded=1;whiteSpace=wrap;html=1;" parent="1" vertex="1">
          <mxGeometry x="240" y="70" width="100" height="50" as="geometry" />
        </mxCell>
        <mxCell id="k3CU6TP85rjrAM1Exs9o-11" value="" style="edgeStyle=orthogonalEdgeStyle;rounded=0;orthogonalLoop=1;jettySize=auto;html=1;exitX=1;exitY=0.5;exitDx=0;exitDy=0;" parent="1" source="xbN65CFIQN-J-LEfUWAi-4" target="k3CU6TP85rjrAM1Exs9o-2" edge="1">
          <mxGeometry relative="1" as="geometry">
            <mxPoint x="470" y="95" as="targetPoint" />
            <mxPoint x="340" y="95" as="sourcePoint" />
          </mxGeometry>
        </mxCell>
        <mxCell id="k3CU6TP85rjrAM1Exs9o-2" value="&lt;font color=&quot;#404040&quot;&gt;&lt;span style=&quot;font-size: 16px;&quot;&gt;&lt;b&gt;Proposal details&lt;/b&gt;&lt;/span&gt;&lt;/font&gt;" style="rounded=1;whiteSpace=wrap;html=1;" parent="1" vertex="1">
          <mxGeometry x="390" y="70" width="100" height="50" as="geometry" />
        </mxCell>
      </root>
    </mxGraphModel>
  </diagram>
</mxfile>
